<svg xmlns="http://www.w3.org/2000/svg" width="260" height="40" fill="none"><path fill="#fff" d="M30 40H19.51a5.714 5.714 0 0 1-4.04-1.674L1.673 24.531A5.714 5.714 0 0 1 0 20.49V10l30 30Zm-19.286 0H4.286A4.286 4.286 0 0 1 0 35.714v-6.428L10.714 40Zm23.01-3.42A21.428 21.428 0 1 0 3.419 6.277l7.071 7.071c1.116 1.116 2.918 1.06 4.338.371a8.57 8.57 0 0 1 11.454 11.455c-.69 1.42-.745 3.221.37 4.337l7.072 7.07ZM244.136 6.93c8.44 0 15.312 6.87 15.312 15.31v10.83h-7.469V22.24c0-3.099-1.867-5.788-4.482-7.057V33.07h-7.469V22.24c0-3.1-1.867-5.789-4.481-7.059V33.07h-7.469V6.929h4.108c2.838 0 5.527.822 7.842 2.204V6.929h4.108Zm-19.025 15.31c0 5.976-4.892 10.83-10.83 10.83-5.975 0-10.83-4.854-10.83-10.83V6.93h7.469v15.31a3.347 3.347 0 0 0 3.361 3.362 3.37 3.37 0 0 0 3.361-3.361V6.929h7.469v15.312Zm-23.937 2.428c0 4.594-3.735 8.328-8.328 8.328h-11.092v-7.469h11.092a.869.869 0 0 0 .859-.859c0-.448-.411-.821-.859-.821h-3.025a8.431 8.431 0 0 1-8.44-8.44c0-4.669 3.772-8.478 8.44-8.478H200.8v7.47h-10.979c-.56 0-.971.447-.971 1.008 0 .522.411.97.971.97h3.025c4.593 0 8.328 3.735 8.328 8.291ZM170.441 6.93c5.228 0 9.523 4.294 9.523 9.522 0 5.266-4.295 9.523-9.523 9.523h-2.801v7.096h-7.469V6.929h10.27Zm0 11.576c1.12 0 2.054-.896 2.054-2.054 0-1.12-.934-2.054-2.054-2.054h-2.801v4.108h2.801ZM156.809 33.07h-7.469V6.93h7.469v26.14ZM147.046 20c0 7.208-5.901 13.07-13.071 13.07-7.208 0-13.071-5.862-13.071-13.07 0-7.17 5.863-13.07 13.071-13.07 7.17 0 13.071 5.9 13.071 13.07Zm-7.469 0c0-3.062-2.54-5.602-5.602-5.602-3.1 0-5.602 2.54-5.602 5.602 0 3.1 2.502 5.602 5.602 5.602 3.062 0 5.602-2.502 5.602-5.602Zm-20.847-1.68v14.75h-9.336c-7.207 0-13.07-5.862-13.07-13.07 0-7.17 5.863-13.07 13.07-13.07h9.336v7.468h-9.336c-3.099 0-5.602 2.54-5.602 5.602 0 3.1 2.503 5.602 5.602 5.602h1.867V18.32h7.469ZM95.113 20c0 7.208-5.901 13.07-13.071 13.07-7.208 0-13.071-5.862-13.071-13.07 0-7.17 5.863-13.07 13.07-13.07 7.171 0 13.072 5.9 13.072 13.07Zm-7.47 0c0-3.062-2.539-5.602-5.601-5.602-3.1 0-5.602 2.54-5.602 5.602 0 3.1 2.502 5.602 5.602 5.602 3.062 0 5.602-2.502 5.602-5.602Zm-19.442 5.602v7.469h-9.336a6.694 6.694 0 0 1-6.722-6.722V6.929h7.469v18.673h8.59Z"/></svg>